<?xml version="1.0" encoding="utf-8"?>
<!-- Generator: Adobe Illustrator 16.0.3, SVG Export Plug-In . SVG Version: 6.00 Build 0)  -->
<!DOCTYPE svg PUBLIC "-//W3C//DTD SVG 1.1//EN" "http://www.w3.org/Graphics/SVG/1.1/DTD/svg11.dtd">
<svg version="1.1"
	 id="svg2566" xmlns:dc="http://purl.org/dc/elements/1.1/" xmlns:cc="http://creativecommons.org/ns#" xmlns:rdf="http://www.w3.org/1999/02/22-rdf-syntax-ns#" xmlns:svg="http://www.w3.org/2000/svg" xmlns:inkscape="http://www.inkscape.org/namespaces/inkscape" xmlns:sodipodi="http://sodipodi.sourceforge.net/DTD/sodipodi-0.dtd" inkscape:version="0.92.2 (5c3e80d, 2017-08-06)" sodipodi:docname="Get it on Google Play (2016) (Print 2).svg"
	 xmlns="http://www.w3.org/2000/svg" xmlns:xlink="http://www.w3.org/1999/xlink" x="0px" y="0px" width="1000px" height="292.85px"
	 viewBox="0 0 1000 292.85" enable-background="new 0 0 1000 292.85" xml:space="preserve">
<g id="g116" display="none">
	<g>
		<defs>
			<rect id="SVGID_1_" y="0" width="468.661" height="181.418"/>
		</defs>
		<clipPath id="SVGID_2_" display="inline">
			<use xlink:href="#SVGID_1_"  overflow="visible"/>
		</clipPath>
		<g id="g118" clip-path="url(#SVGID_2_)">
			<path id="path120" inkscape:connector-curvature="0" display="inline" fill-opacity="0.2" d="M0,0h468.661v181.418H0V0z"/>
		</g>
	</g>
</g>
<sodipodi:namedview  units="px" bordercolor="#666666" showgrid="false" pagecolor="#ffffff" inkscape:cy="171.49272" inkscape:cx="376.28262" inkscape:zoom="0.7" borderopacity="1.0" id="base" inkscape:pageshadow="2" inkscape:pageopacity="0.0" inkscape:window-y="-8" inkscape:window-x="-8" inkscape:window-height="705" inkscape:window-width="1366" inkscape:current-layer="layer1" inkscape:document-units="px" inkscape:window-maximized="1">
	</sodipodi:namedview>
<g id="layer1" transform="translate(0,-219.51703)" inkscape:groupmode="layer" inkscape:label="Layer 1">
	<path id="path20" inkscape:connector-curvature="0" sodipodi:nodetypes="ccscccsccsccccccccsccscsccccccc" display="none" d="
		M329.387,269.044c-6.566,0-12.247,2.299-16.853,6.821c-4.622,4.52-6.954,10.191-6.954,16.867s2.329,12.335,6.946,16.89v0.008h0.008
		c4.606,4.487,10.285,6.791,16.853,6.791c6.85,0,12.545-2.26,16.875-6.725l0.007-0.008c3.788-3.795,5.706-8.919,5.706-15.177v-0.384
		l-0.044-0.03c-0.019-0.988-0.069-1.998-0.303-3.063l-0.133-0.583h-22.847v6.762h15.805c-0.43,3.166-1.339,5.827-3.174,7.648
		c-3.154,3.116-7.102,4.688-11.892,4.688c-4.49,0-8.319-1.563-11.634-4.658l-0.007-0.008c-3.251-3.12-4.872-7.144-4.872-12.158
		c0-5.018,1.622-8.997,4.879-12.121c3.313-3.13,7.139-4.657,11.634-4.657c5.014,0,8.799,1.615,11.634,4.923l0.517,0.605l4.917-4.901
		l-0.436-0.517c-1.792-2.138-4.251-3.847-7.227-5.101C335.812,269.715,332.673,269.044,329.387,269.044L329.387,269.044z"/>
	<path id="path24" inkscape:connector-curvature="0" sodipodi:nodetypes="cccccccccccccc" display="none" d="M358.708,270.048
		v45.361h27.409v-6.864h-20.212v-12.432h18.219v-6.762h-18.219v-12.438h20.212v-0.738v-6.127H358.708z"/>
	<path id="path28" inkscape:connector-curvature="0" sodipodi:nodetypes="cccccccccc" display="none" d="M390.613,270.048v6.865
		h12.401v38.496h7.197v-0.737v-37.759h12.402v-6.865H390.613z"/>
	<path id="path32" inkscape:connector-curvature="0" sodipodi:nodetypes="cccccc" display="none" d="M443.238,270.048v45.361h0.73
		h6.452v-45.361H443.238z"/>
	<path id="path36" inkscape:connector-curvature="0" sodipodi:nodetypes="cccccccccc" display="none" d="M456.149,270.048v6.865
		h12.445v38.496h7.153v-0.737v-37.759h12.438v-6.865H456.149z"/>
	<path id="path40" inkscape:connector-curvature="0" sodipodi:nodetypes="scscscscsscscscscs" display="none" d="M528.972,269.044
		c-6.677,0-12.331,2.305-16.838,6.873c-4.496,4.557-6.763,10.216-6.763,16.815s2.267,12.259,6.763,16.816
		c4.507,4.567,10.161,6.872,16.838,6.872c6.641,0,12.294-2.305,16.801-6.872c4.496-4.558,6.762-10.217,6.762-16.816
		c0-6.562-2.271-12.188-6.799-16.779C541.229,271.348,535.575,269.044,528.972,269.044z M528.972,275.909
		c4.57,0,8.392,1.561,11.522,4.717c3.151,3.15,4.739,7.15,4.739,12.106s-1.587,8.948-4.739,12.099
		c-3.131,3.156-6.952,4.718-11.522,4.718c-4.608,0-8.389-1.563-11.561-4.725c-3.148-3.15-4.739-7.139-4.739-12.092
		s1.591-8.949,4.739-12.099C520.583,277.473,524.363,275.909,528.972,275.909z"/>
	<path id="path44" inkscape:connector-curvature="0" sodipodi:nodetypes="cccccccccccccc" display="none" d="M559.09,270.048v45.361
		h0.73h6.415v-28.088l-0.185-6.208l21.651,34.296h7.108v-45.361h-7.183v26.442l0.185,6.186l-20.64-32.628H559.09z"/>
	<path id="path16" inkscape:connector-curvature="0" fill="#4285F4" d="M962.963,227.882c17.148,0,31.102,13.792,31.102,30.74
		v219.637c0,16.948-13.953,30.74-31.102,30.74H37.037c-17.148,0-31.102-13.792-31.102-30.74V258.622
		c0-16.948,13.954-30.74,31.102-30.74H962.963 M962.963,222.016H37.037C16.676,222.016,0,238.498,0,258.622v219.637
		c0,20.124,16.676,36.606,37.037,36.606h925.926c20.361,0,37.037-16.482,37.037-36.606V258.622
		C1000,238.498,983.324,222.016,962.963,222.016z"/>
	<path id="path46" inkscape:connector-curvature="0" fill="#4285F4" d="M504.703,378.772c-17.397,0-31.61,13.087-31.61,31.143
		c0,17.91,14.213,31.134,31.61,31.134c17.436,0,31.648-13.224,31.648-31.134C536.352,391.859,522.139,378.772,504.703,378.772z
		 M504.703,428.785c-9.546,0-17.759-7.788-17.759-18.871c0-11.229,8.213-18.879,17.759-18.879c9.547,0,17.797,7.65,17.797,18.879
		C522.5,420.997,514.25,428.785,504.703,428.785z M435.731,378.772c-17.436,0-31.611,13.087-31.611,31.143
		c0,17.91,14.176,31.134,31.611,31.134c17.426,0,31.611-13.224,31.611-31.134C467.343,391.859,453.157,378.772,435.731,378.772z
		 M435.731,428.785c-9.556,0-17.796-7.788-17.796-18.871c0-11.229,8.241-18.879,17.796-18.879c9.546,0,17.759,7.65,17.759,18.879
		C453.49,420.997,445.277,428.785,435.731,428.785z M353.657,388.317v13.233h31.972c-0.936,7.395-3.435,12.83-7.269,16.619
		c-4.667,4.576-11.935,9.655-24.704,9.655c-19.676,0-35.083-15.695-35.083-35.143c0-19.446,15.407-35.142,35.083-35.142
		c10.639,0,18.379,4.109,24.093,9.436l9.435-9.325c-7.991-7.541-18.621-13.334-33.528-13.334c-26.981,0-49.657,21.698-49.657,48.366
		c0,26.667,22.676,48.365,49.657,48.365c14.583,0,25.537-4.723,34.148-13.581c8.824-8.722,11.574-20.984,11.574-30.887
		c0-3.074-0.251-5.902-0.724-8.264H353.657z M689.269,398.575c-2.604-6.964-10.63-19.804-26.981-19.804
		c-16.204,0-29.694,12.62-29.694,31.143c0,17.443,13.352,31.134,31.25,31.134c14.472,0,22.824-8.722,26.259-13.801l-10.74-7.074
		c-3.584,5.181-8.463,8.612-15.519,8.612c-7.01,0-12.037-3.176-15.26-9.436l42.139-17.232L689.269,398.575z M646.306,408.945
		c-0.36-12.007,9.435-18.156,16.453-18.156c5.5,0,10.167,2.717,11.723,6.607L646.306,408.945z M612.056,439.154h13.852v-91.516
		h-13.852V439.154z M589.37,385.709h-0.464c-3.11-3.643-9.046-6.938-16.564-6.938c-15.777,0-30.204,13.69-30.204,31.243
		c0,17.452,14.427,31.033,30.204,31.033c7.519,0,13.454-3.322,16.564-7.074h0.464v4.466c0,11.906-6.436,18.303-16.814,18.303
		c-8.463,0-13.713-6.04-15.88-11.119l-12.047,4.97c3.473,8.255,12.667,18.413,27.927,18.413c16.24,0,29.944-9.444,29.944-32.424
		v-55.916h-13.13V385.709z M573.527,428.785c-9.546,0-17.537-7.898-17.537-18.771c0-10.973,7.991-18.979,17.537-18.979
		c9.407,0,16.824,8.007,16.824,18.979C590.352,420.887,582.935,428.785,573.527,428.785z M754.12,347.638h-33.13v91.516h13.815
		v-34.675h19.314c15.343,0,30.389-10.973,30.389-28.425C784.509,358.612,769.426,347.639,754.12,347.638L754.12,347.638z
		 M754.48,391.749h-19.676v-31.381h19.676c10.314,0,16.204,8.465,16.204,15.686C770.685,383.137,764.795,391.749,754.48,391.749z
		 M839.879,378.598c-9.981,0-20.361,4.356-24.63,14.011l12.26,5.079c2.639-5.079,7.49-6.726,12.62-6.726
		c7.166,0,14.435,4.255,14.546,11.769v0.961c-2.499-1.428-7.852-3.542-14.435-3.542c-13.204,0-26.658,7.184-26.658,20.591
		c0,12.263,10.815,20.161,22.973,20.161c9.296,0,14.426-4.146,17.648-8.969h0.472v7.074h13.343v-35.105
		C868.018,387.676,855.758,378.598,839.879,378.598L839.879,378.598z M838.211,428.748c-4.519,0-10.814-2.215-10.814-7.751
		c0-7.083,7.852-9.802,14.648-9.802c6.083,0,8.935,1.327,12.629,3.075C853.591,422.745,846.211,428.748,838.211,428.748
		L838.211,428.748z M916.628,380.602l-15.88,39.672h-0.472l-16.417-39.672h-14.898l24.667,55.44l-14.074,30.85h14.436l38.009-86.29
		H916.628z M792.1,439.154h13.853v-91.515H792.1V439.154z"/>
	<path id="path64" inkscape:connector-curvature="0" fill="#4285F4" d="M77.296,274.71c-2.176,2.251-3.435,5.756-3.435,10.295
		v161.909c0,4.539,1.259,8.044,3.435,10.295l0.537,0.494l91.796-90.691v-2.142l-91.796-90.691L77.296,274.71z"/>
	<path id="path20903" inkscape:connector-curvature="0" fill="#4285F4" d="M77.798,458.886l92.925-93.025l-92.848-92.858
		c-2.48,1.445-4.015,4.793-4.015,9.175V449.8C73.894,454.182,75.374,457.284,77.798,458.886z"/>
	<path id="path20905" inkscape:connector-curvature="0" fill="#4285F4" d="M174.051,363.292l27.68-27.714L89.01,273.702
		c-1.898-1.104-4.054-1.687-6.25-1.69l91.279,91.269L174.051,363.292z"/>
	<path id="path20907" inkscape:connector-curvature="0" fill="#4285F4" d="M174.051,368.441L82.482,460.11
		c2.298,0.038,4.562-0.563,6.539-1.735l112.942-62.043L174.051,368.441z"/>
	<path id="path20909" inkscape:connector-curvature="0" fill="#4285F4" d="M242.566,358.031l-37.51-20.629l-28.436,28.469
		l28.647,28.647l37.288-20.573C250.484,369.575,250.484,362.38,242.566,358.031L242.566,358.031z"/>
	<g id="g150" transform="matrix(2.4498458,0,0,-2.4213425,5.7764772,321.44581)" display="none">
	</g>
	<text transform="matrix(1 0 0 1 304 307.4416)" fill="#4285F4" font-family="'Roboto-Regular'" font-size="62">DISPONIBLE EN</text>
</g>
</svg>
